<svg version="1.1" xmlns="http://www.w3.org/2000/svg" xmlns:xlink="http://www.w3.org/1999/xlink" x="0px" y="0px"
	 width="939.84px" height="393.49px" viewBox="0 0 939.84 393.49" style="enable-background:new 0 0 939.84 393.49;"
	 xml:space="preserve">
<style type="text/css">
	.st0{fill:#FFFFFF;}
	.st1{fill:#28465E;}
	.st2{fill:#D4BB3C;}
	.st3{fill:#FADD3B;}
	.st4{fill:#FAF7E1;}
	.st5{fill:#8599CA;}
	.st6{fill:#A2E8F1;}
	.st7{fill:#909598;}
	.st8{opacity:0.149;}
	.st9{fill:#121214;}
	.st10{opacity:0.0275;}
	.st11{fill:#000001;}
	.st12{fill:#A7AAAD;}
	.st13{opacity:0.0392;}
	.st14{fill:#050307;}
	.st15{fill:#0E0B0D;}
	.st16{fill:#0C0D0D;}
	.st17{fill:#18171A;}
	.st18{opacity:0.2;}
	.st19{fill:#1E1C1E;}
	.st20{fill:#0097AB;}
	.st21{fill:#007D84;}
</style>
<defs>
</defs>
<g>
	<path class="st0" d="M393.49,196.74c0,108.66-88.09,196.74-196.74,196.74C88.08,393.49,0,305.4,0,196.74C0,88.08,88.08,0,196.74,0
		C305.4,0,393.49,88.08,393.49,196.74"/>
	<path class="st1" d="M383.27,196.74c0,103.02-83.52,186.53-186.53,186.53c-103.02,0-186.53-83.51-186.53-186.53
		c0-103.02,83.51-186.53,186.53-186.53C299.75,10.22,383.27,93.73,383.27,196.74"/>
	<g>
		<polyline class="st2" points="262.2,335.31 263.06,339.81 261.6,343.68 266.13,344.14 269.37,346.83 271.2,342.89 274.95,340.45 
			271.51,337.51 270.6,333.06 267.28,335.21 262.2,335.31 		"/>
	</g>
	<g>
		<polyline class="st3" points="262.2,335.31 264.1,339.65 261.6,343.68 266.31,343.21 269.37,346.83 270.39,342.21 274.78,340.42 
			270.69,338.02 270.35,333.3 266.8,336.44 262.2,335.31 		"/>
	</g>
	<g>
		<g>
			<polyline class="st2" points="128.26,287.51 131.12,288.1 133.06,289.9 134.43,287.34 136.82,286.07 134.92,284.03 134.4,281.23 
				131.82,282.54 128.96,282 129.43,284.49 128.26,287.51 			"/>
		</g>
		<g>
			<polyline class="st3" points="128.26,287.51 131.29,287.44 133.06,289.9 133.93,287 136.82,286.07 134.32,284.35 134.33,281.32 
				131.92,283.15 129.05,282.21 130.04,285.07 128.26,287.51 			"/>
		</g>
	</g>
	<g>
		<polyline class="st2" points="304.28,90.46 307.14,91.05 309.08,92.85 310.45,90.29 312.83,89.03 310.93,86.99 310.41,84.17 
			307.83,85.5 304.98,84.95 305.45,87.44 304.28,90.46 		"/>
	</g>
	<g>
		<polyline class="st3" points="304.28,90.46 307.3,90.4 309.08,92.85 309.94,89.95 312.83,89.03 310.34,87.3 310.35,84.27 
			307.94,86.11 305.06,85.16 306.06,88.02 304.28,90.46 		"/>
	</g>
	<g>
		<polyline class="st2" points="199.93,89.45 204.78,90.44 208.06,93.49 210.38,89.15 214.41,87.01 211.21,83.57 210.32,78.8 
			205.96,81.04 201.12,80.11 201.92,84.33 199.93,89.45 		"/>
	</g>
	<g>
		<polyline class="st3" points="199.93,89.45 205.06,89.33 208.06,93.49 209.53,88.58 214.41,87.01 210.2,84.09 210.21,78.96 
			206.14,82.07 201.26,80.47 202.96,85.31 199.93,89.45 		"/>
	</g>
	<g>
		<polyline class="st2" points="66.62,84.66 68.62,85.08 69.97,86.33 70.92,84.54 72.58,83.66 71.26,82.25 70.9,80.28 69.1,81.2 
			67.11,80.82 67.44,82.55 66.62,84.66 		"/>
	</g>
	<g>
		<polyline class="st3" points="66.62,84.66 68.73,84.61 69.97,86.33 70.58,84.31 72.58,83.66 70.85,82.46 70.86,80.35 69.18,81.62 
			67.17,80.97 67.87,82.96 66.62,84.66 		"/>
	</g>
	<g>
		<g>
			<path class="st4" d="M294.88,127.35c-0.29,0-0.46,0-0.46,0S294.6,127.37,294.88,127.35z"/>
		</g>
		<g>
			<path class="st4" d="M307.12,127.31c0.39-0.09,0.72-0.13,0.97-0.14h-1.56c-4.83-1.55-5.08-12.48-5.61-7.18
				c-0.51,5.16-3.14,6.71-4.89,7.18h-0.75c0.2,0,0.39,0.01,0.58,0.04c-0.39,0.09-0.72,0.13-0.97,0.14c0.35,0,0.9,0,1.56,0
				c4.83,1.55,5.08,12.48,5.61,7.18c0.51-5.17,3.14-6.72,4.9-7.18c0.24,0,0.46,0,0.66,0C307.44,127.35,307.28,127.34,307.12,127.31z
				"/>
		</g>
		<g>
			<path class="st4" d="M307.61,127.35c0.03,0,0.06,0,0.09,0C309.43,127.35,309.04,127.35,307.61,127.35z"/>
		</g>
		<g>
			<path class="st4" d="M308.09,127.17h0.46C308.55,127.17,308.38,127.16,308.09,127.17z"/>
		</g>
	</g>
	<g>
		<g>
			<path class="st4" d="M177.99,284.12h-0.46C177.53,284.12,177.7,284.13,177.99,284.12z"/>
		</g>
		<g>
			<path class="st4" d="M190.23,284.07c0.39-0.09,0.73-0.13,0.98-0.14h-1.57c-4.83-1.55-5.08-12.48-5.61-7.18
				c-0.51,5.16-3.13,6.71-4.89,7.18h-0.76c0.2,0,0.39,0.02,0.58,0.04c-0.39,0.09-0.72,0.13-0.97,0.14h1.56
				c4.83,1.55,5.08,12.48,5.61,7.18c0.51-5.16,3.14-6.71,4.89-7.18h0.75C190.61,284.12,190.41,284.1,190.23,284.07z"/>
		</g>
		<g>
			<path class="st4" d="M191.2,283.94h0.45C191.66,283.94,191.49,283.92,191.2,283.94z"/>
		</g>
	</g>
	<g>
		<g>
			<path class="st4" d="M228.38,334.83c-0.29,0-0.46,0-0.46,0S228.1,334.84,228.38,334.83z"/>
		</g>
		<g>
			<path class="st4" d="M240.61,334.78c0.4-0.09,0.74-0.13,0.99-0.14c-0.36,0-0.9,0-1.58,0c-4.82-1.57-5.07-12.47-5.59-7.18
				c-0.51,5.15-3.12,6.71-4.88,7.18c-0.25,0-0.47,0-0.68,0c0.17,0,0.34,0.02,0.5,0.04c-0.4,0.09-0.74,0.13-0.99,0.14
				c0.36,0,0.9,0,1.58,0c4.82,1.57,5.07,12.47,5.59,7.18c0.51-5.15,3.13-6.71,4.88-7.18c0.24,0,0.47,0,0.68,0
				C240.94,334.82,240.77,334.81,240.61,334.78z"/>
		</g>
		<g>
			<path class="st4" d="M241.11,334.83c0.03,0,0.06,0,0.09,0C242.93,334.83,242.54,334.83,241.11,334.83z"/>
		</g>
		<g>
			<path class="st4" d="M241.6,334.64c0.29,0,0.45,0,0.45,0S241.88,334.63,241.6,334.64z"/>
		</g>
		<g>
			<path class="st4" d="M228.87,334.64c-0.03,0-0.06,0-0.09,0C227.05,334.64,227.44,334.64,228.87,334.64z"/>
		</g>
	</g>
	<g>
		<g>
			<path class="st4" d="M115.03,336.69c-0.5,0-0.77,0-0.77,0S114.55,336.71,115.03,336.69z"/>
		</g>
		<g>
			<path class="st4" d="M136.74,336.69c0.03,0,0.06,0,0.09,0C139.75,336.69,139.12,336.69,136.74,336.69z"/>
		</g>
		<g>
			<path class="st4" d="M135.83,336.61c0.66-0.15,1.24-0.22,1.66-0.24h-2.67c-8.2-2.66-8.63-21.21-9.52-12.2
				c-0.87,8.75-5.32,11.41-8.3,12.2h-1.3c0.34,0,0.67,0.03,0.99,0.08c-0.67,0.15-1.24,0.22-1.67,0.24c0.6,0,1.53,0,2.67,0
				c8.2,2.65,8.63,21.22,9.52,12.2c0.87-8.76,5.32-11.42,8.3-12.2c0.44,0,0.84,0,1.21,0C136.43,336.68,136.13,336.66,135.83,336.61z
				"/>
		</g>
		<g>
			<path class="st4" d="M137.49,336.37h0.78C138.28,336.37,137.98,336.35,137.49,336.37z"/>
		</g>
	</g>
	<g>
		<g>
			<path class="st4" d="M246.24,78.59h-0.78C245.46,78.59,245.76,78.62,246.24,78.59z"/>
		</g>
		<g>
			<path class="st4" d="M267.04,78.52c0.67-0.15,1.24-0.22,1.67-0.24c-0.6,0-1.53,0-2.67,0c-8.2-2.65-8.63-21.21-9.52-12.2
				c-0.87,8.76-5.32,11.42-8.3,12.2c-0.44,0-0.85,0-1.21,0c0.31,0,0.62,0.03,0.91,0.07c-0.66,0.15-1.23,0.22-1.66,0.24h2.66
				c8.21,2.66,8.64,21.22,9.53,12.21c0.87-8.76,5.32-11.42,8.3-12.21h1.3C267.69,78.59,267.36,78.57,267.04,78.52z"/>
		</g>
		<g>
			<path class="st4" d="M268.71,78.28c0.49,0,0.77,0,0.77,0S269.19,78.25,268.71,78.28z"/>
		</g>
		<g>
			<path class="st4" d="M246.99,78.28c-0.03,0-0.06,0-0.09,0C243.99,78.28,244.62,78.28,246.99,78.28z"/>
		</g>
	</g>
	<g>
		<g>
			<path class="st4" d="M39.86,220.29c0.66-0.15,1.24-0.22,1.66-0.24h-2.66c-8.21-2.66-8.64-21.22-9.53-12.21
				c-0.86,8.76-5.32,11.42-8.3,12.21h-1.3c0.34,0,0.67,0.03,1,0.08c-0.67,0.15-1.24,0.22-1.67,0.24c0.6,0,1.53,0,2.67,0
				c8.2,2.65,8.63,21.22,9.53,12.2c0.87-8.76,5.32-11.42,8.3-12.2c0.44,0,0.85,0,1.21,0C40.45,220.36,40.15,220.34,39.86,220.29z"/>
		</g>
		<g>
			<path class="st4" d="M19.06,220.37c-0.49,0-0.77,0-0.77,0S18.58,220.39,19.06,220.37z"/>
		</g>
		<g>
			<path class="st4" d="M40.77,220.36c0.03,0,0.06,0,0.09,0C43.77,220.37,43.14,220.36,40.77,220.36z"/>
		</g>
		<g>
			<path class="st4" d="M41.52,220.05h0.78C42.3,220.05,42,220.03,41.52,220.05z"/>
		</g>
	</g>
	<g>
		<g>
			<path class="st4" d="M320.34,279.26H320C320,279.26,320.13,279.27,320.34,279.26z"/>
		</g>
		<g>
			<path class="st4" d="M329.47,279.23c0.28-0.06,0.53-0.09,0.72-0.1h-1.15c-3.62-1.14-3.81-9.32-4.2-5.36
				c-0.38,3.86-2.34,5.02-3.65,5.36h-0.56c0.15,0,0.29,0.01,0.43,0.03c-0.28,0.06-0.53,0.09-0.71,0.1h1.14
				c3.62,1.14,3.81,9.32,4.2,5.36c0.38-3.86,2.35-5.02,3.66-5.36h0.56C329.75,279.26,329.61,279.25,329.47,279.23z"/>
		</g>
		<g>
			<path class="st4" d="M330.19,279.13h0.35C330.53,279.13,330.4,279.12,330.19,279.13z"/>
		</g>
	</g>
	<g>
		<g>
			<path class="st4" d="M164.89,118.57h-0.2C164.69,118.57,164.77,118.58,164.89,118.57z"/>
		</g>
		<g>
			<path class="st4" d="M170.64,118.55c0.19-0.04,0.34-0.06,0.46-0.06h-0.73c-2.27-0.72-2.39-5.85-2.64-3.36
				c-0.24,2.43-1.48,3.15-2.3,3.36h-0.35c0.09,0,0.18,0.01,0.27,0.02c-0.19,0.04-0.34,0.06-0.46,0.06h0.73
				c2.27,0.72,2.39,5.85,2.64,3.36c0.24-2.43,1.48-3.15,2.3-3.36h0.34C170.81,118.57,170.72,118.56,170.64,118.55z"/>
		</g>
		<g>
			<path class="st4" d="M171.1,118.49h0.2C171.3,118.49,171.22,118.48,171.1,118.49z"/>
		</g>
	</g>
	<g>
		<g>
			<path class="st4" d="M57.29,122.56c-0.17,0-0.42,0-0.74,0c-2.25-0.74-2.37-5.83-2.62-3.36c-0.24,2.42-1.47,3.15-2.29,3.36
				c-0.11,0-0.22,0-0.31,0c0.08,0,0.16,0.01,0.24,0.02c-0.19,0.04-0.35,0.06-0.47,0.07c0.17,0,0.42,0,0.74,0
				c2.25,0.74,2.37,5.83,2.62,3.35c0.24-2.42,1.46-3.14,2.28-3.36c0.11,0,0.22,0,0.31,0c-0.08,0-0.16-0.01-0.24-0.02
				C57.01,122.59,57.17,122.57,57.29,122.56z"/>
		</g>
		<g>
			<path class="st4" d="M51.09,122.65c-0.13,0-0.21,0-0.21,0S50.97,122.66,51.09,122.65z"/>
		</g>
		<g>
			<path class="st4" d="M57.05,122.65c0.02,0,0.03,0,0.04,0C57.91,122.65,57.72,122.65,57.05,122.65z"/>
		</g>
		<g>
			<path class="st4" d="M51.33,122.56c-0.02,0-0.03,0-0.04,0C50.47,122.56,50.66,122.56,51.33,122.56z"/>
		</g>
		<g>
			<path class="st4" d="M57.29,122.56c0.13,0,0.21,0,0.21,0S57.41,122.56,57.29,122.56z"/>
		</g>
	</g>
	<g>
		<g>
			<path class="st4" d="M221.28,49.74c-0.29,0-0.46,0-0.46,0S221,49.75,221.28,49.74z"/>
		</g>
		<g>
			<path class="st4" d="M234.07,49.74c0.01,0,0.02,0,0.04,0C235.81,49.74,235.45,49.74,234.07,49.74z"/>
		</g>
		<g>
			<path class="st4" d="M233.52,49.69c0.39-0.09,0.73-0.13,0.98-0.14c-0.35,0-0.9,0-1.57,0c-4.83-1.56-5.08-12.48-5.6-7.18
				c-0.51,5.16-3.14,6.72-4.89,7.18c-0.25,0-0.49,0-0.7,0c0.18,0,0.35,0.02,0.52,0.04c-0.39,0.09-0.73,0.13-0.98,0.14
				c0.35,0,0.9,0,1.57,0c4.83,1.56,5.08,12.48,5.61,7.18c0.51-5.15,3.13-6.72,4.88-7.18c0.27,0,0.51,0,0.73,0
				C233.88,49.73,233.69,49.72,233.52,49.69z"/>
		</g>
		<g>
			<path class="st4" d="M234.49,49.55c0.29,0,0.46,0,0.46,0S234.78,49.54,234.49,49.55z"/>
		</g>
		<g>
			<path class="st4" d="M221.74,49.55c-0.02,0-0.04,0-0.06,0C219.96,49.55,220.33,49.55,221.74,49.55z"/>
		</g>
	</g>
	<g>
		<g>
			<path class="st4" d="M247.14,152.77h-0.21C246.93,152.77,247.01,152.78,247.14,152.77z"/>
		</g>
		<g>
			<path class="st4" d="M253.26,152.75c0.21-0.05,0.38-0.07,0.51-0.07c-0.18,0-0.46,0-0.81,0c-2.41-0.79-2.53-6.23-2.79-3.59
				c-0.26,2.58-1.57,3.36-2.44,3.59c-0.12,0-0.23,0-0.34,0c0.09,0,0.17,0.01,0.25,0.02c-0.21,0.05-0.39,0.07-0.51,0.07h0.81
				c2.4,0.79,2.53,6.24,2.79,3.58c0.26-2.57,1.56-3.35,2.43-3.58h0.39C253.46,152.77,253.36,152.76,253.26,152.75z"/>
		</g>
		<g>
			<path class="st4" d="M247.4,152.68c-0.02,0-0.03,0-0.04,0C246.49,152.68,246.68,152.68,247.4,152.68z"/>
		</g>
		<g>
			<path class="st4" d="M253.77,152.68c0.14,0,0.22,0,0.22,0S253.91,152.67,253.77,152.68z"/>
		</g>
	</g>
	<g>
		<g>
			<path class="st4" d="M164.68,49.59c-0.14,0-0.21,0-0.21,0S164.55,49.6,164.68,49.59z"/>
		</g>
		<g>
			<path class="st4" d="M171.08,49.59c0.01,0,0.01,0,0.02,0C171.96,49.59,171.77,49.59,171.08,49.59z"/>
		</g>
		<g>
			<path class="st4" d="M170.81,49.57c0.2-0.05,0.38-0.06,0.5-0.07h-0.8c-2.42-0.78-2.55-6.24-2.81-3.59
				c-0.26,2.59-1.57,3.36-2.45,3.59h-0.37c0.1,0,0.2,0.01,0.29,0.02c-0.2,0.05-0.37,0.07-0.5,0.07c0.18,0,0.45,0,0.79,0
				c2.42,0.78,2.54,6.24,2.8,3.59c0.26-2.59,1.58-3.36,2.46-3.59c0.13,0,0.25,0,0.35,0C170.99,49.59,170.9,49.58,170.81,49.57z"/>
		</g>
		<g>
			<path class="st4" d="M171.31,49.5h0.21C171.53,49.5,171.44,49.49,171.31,49.5z"/>
		</g>
	</g>
	<g>
		<g>
			<path class="st4" d="M327.23,199.52H327C327,199.52,327.09,199.52,327.23,199.52z"/>
		</g>
		<g>
			<path class="st4" d="M333.35,199.5c0.2-0.05,0.37-0.06,0.5-0.07h-0.79c-2.42-0.77-2.55-6.24-2.82-3.58
				c-0.25,2.59-1.57,3.36-2.44,3.58h-0.37c0.1,0,0.19,0.01,0.29,0.02c-0.2,0.04-0.36,0.06-0.49,0.07H328
				c2.42,0.77,2.55,6.25,2.81,3.59c0.25-2.59,1.58-3.37,2.46-3.59h0.37C333.54,199.52,333.45,199.51,333.35,199.5z"/>
		</g>
		<g>
			<path class="st4" d="M333.85,199.43h0.21C334.07,199.43,333.98,199.42,333.85,199.43z"/>
		</g>
	</g>
	<g>
		<g>
			<polyline class="st5" points="178.79,334.63 182.4,336.14 184.46,339.02 186.93,336.01 190.39,334.98 188.44,331.81 
				188.5,327.99 184.77,329.04 181.16,327.58 181.13,330.96 178.79,334.63 			"/>
		</g>
	</g>
	<g>
		<g>
			<polyline class="st6" points="184.59,367.37 188.58,368.08 190.26,371.76 192.17,368.19 196.2,367.73 193.38,364.81 
				194.19,360.84 190.55,362.62 187.02,360.62 187.58,364.64 184.59,367.37 			"/>
		</g>
	</g>
	<g>
		<g>
			<polyline class="st5" points="197.73,221.6 199.74,222.45 200.89,224.04 202.27,222.37 204.19,221.8 203.11,220.03 203.14,217.9 
				201.06,218.49 199.06,217.67 199.03,219.56 197.73,221.6 			"/>
		</g>
		<g>
			<polyline class="st6" points="197.73,221.6 199.95,221.99 200.89,224.04 201.95,222.05 204.19,221.8 202.63,220.17 
				203.07,217.96 201.05,218.95 199.08,217.84 199.39,220.07 197.73,221.6 			"/>
		</g>
	</g>
	<g>
		<g>
			<polyline class="st5" points="327.31,166.21 329.32,167.07 330.47,168.67 331.84,166.99 333.77,166.42 332.69,164.65 
				332.72,162.52 330.64,163.1 328.64,162.29 328.62,164.18 327.31,166.21 			"/>
		</g>
		<g>
			<polyline class="st6" points="327.31,166.21 329.54,166.61 330.47,168.67 331.53,166.67 333.77,166.42 332.21,164.79 
				332.65,162.58 330.63,163.57 328.66,162.45 328.97,164.69 327.31,166.21 			"/>
		</g>
	</g>
	<g>
		<polyline class="st5" points="302.16,230.34 304.17,231.19 305.32,232.79 306.69,231.11 308.62,230.55 307.54,228.77 
			307.57,226.65 305.49,227.23 303.49,226.42 303.47,228.3 302.16,230.34 		"/>
	</g>
	<g>
		<polyline class="st6" points="302.16,230.34 304.39,230.74 305.32,232.79 306.38,230.8 308.62,230.55 307.06,228.92 307.5,226.7 
			305.48,227.7 303.51,226.59 303.82,228.82 302.16,230.34 		"/>
	</g>
	<g>
		<polyline class="st5" points="148.99,62.28 150.99,63.13 152.14,64.73 153.52,63.05 155.45,62.48 154.36,60.71 154.39,58.58 
			152.31,59.17 150.31,58.35 150.29,60.24 148.99,62.28 		"/>
	</g>
	<g>
		<polyline class="st6" points="148.99,62.28 151.21,62.68 152.14,64.73 153.2,62.73 155.45,62.48 153.88,60.86 154.33,58.64 
			152.3,59.63 150.34,58.52 150.65,60.75 148.99,62.28 		"/>
	</g>
	<g>
		<g>
			<polyline class="st6" points="43.33,251.13 45.55,251.52 46.49,253.58 47.55,251.59 49.79,251.33 48.22,249.71 48.67,247.49 
				46.64,248.48 44.68,247.37 44.99,249.61 43.33,251.13 			"/>
		</g>
	</g>
	<g>
		<polyline class="st6" points="275.88,285.21 278.11,285.6 279.04,287.65 280.1,285.66 282.34,285.41 280.78,283.78 281.23,281.57 
			279.2,282.56 277.24,281.44 277.55,283.68 275.88,285.21 		"/>
	</g>
	<g>
		<polyline class="st5" points="46.48,140.92 47.23,142.97 46.84,144.91 49.01,144.77 50.74,145.79 51.29,143.79 52.87,142.36 
			51.03,141.24 50.25,139.21 48.86,140.48 46.48,140.92 		"/>
	</g>
	<g>
		<polyline class="st6" points="46.48,140.92 47.71,142.82 46.84,144.91 49.02,144.32 50.74,145.79 50.86,143.53 52.78,142.36 
			50.68,141.55 50.15,139.35 48.73,141.1 46.48,140.92 		"/>
	</g>
	<g>
		<polyline class="st3" points="182.31,147.55 185.33,147.49 187.11,149.94 187.97,147.04 190.86,146.12 188.37,144.38 
			188.38,141.36 185.97,143.2 183.09,142.25 184.09,145.11 182.31,147.55 		"/>
	</g>
	<g>
		<polyline class="st3" points="110.8,132.81 115.93,132.69 118.93,136.85 120.4,131.94 125.29,130.37 121.07,127.45 121.09,122.32 
			117.01,125.43 112.14,123.83 113.83,128.67 110.8,132.81 		"/>
	</g>
	<g>
		<g>
			<path class="st4" d="M131.75,234.13c0.39-0.09,0.72-0.13,0.97-0.14h-1.56c-4.83-1.55-5.08-12.48-5.61-7.18
				c-0.51,5.16-3.14,6.71-4.89,7.18h-0.75c0.2,0,0.39,0.01,0.58,0.04c-0.39,0.09-0.72,0.13-0.97,0.14c0.35,0,0.9,0,1.56,0
				c4.83,1.55,5.08,12.48,5.61,7.18c0.51-5.17,3.14-6.72,4.9-7.18c0.24,0,0.46,0,0.66,0C132.07,234.16,131.91,234.15,131.75,234.13z
				"/>
		</g>
		<g>
			<path class="st4" d="M119.51,234.17c-0.29,0-0.46,0-0.46,0S119.23,234.18,119.51,234.17z"/>
		</g>
		<g>
			<path class="st4" d="M132.24,234.17c0.03,0,0.06,0,0.09,0C134.06,234.17,133.67,234.17,132.24,234.17z"/>
		</g>
		<g>
			<path class="st4" d="M132.72,233.99h0.46C133.18,233.99,133.01,233.97,132.72,233.99z"/>
		</g>
	</g>
	<g>
		<g>
			<path class="st4" d="M62.37,185.92h-0.78C61.59,185.92,61.88,185.94,62.37,185.92z"/>
		</g>
		<g>
			<path class="st4" d="M83.16,185.84c0.67-0.15,1.24-0.22,1.67-0.24c-0.6,0-1.53,0-2.67,0c-8.2-2.65-8.63-21.21-9.52-12.2
				c-0.87,8.76-5.32,11.42-8.3,12.2c-0.44,0-0.85,0-1.21,0c0.31,0,0.62,0.03,0.91,0.07c-0.66,0.15-1.23,0.22-1.66,0.24h2.66
				c8.21,2.66,8.64,21.22,9.53,12.21c0.87-8.76,5.32-11.42,8.3-12.21h1.3C83.82,185.92,83.49,185.89,83.16,185.84z"/>
		</g>
		<g>
			<path class="st4" d="M84.83,185.6c0.49,0,0.77,0,0.77,0S85.31,185.58,84.83,185.6z"/>
		</g>
		<g>
			<path class="st4" d="M63.12,185.6c-0.03,0-0.06,0-0.09,0C60.11,185.6,60.74,185.6,63.12,185.6z"/>
		</g>
	</g>
	<g>
		<g>
			<g>
				<path class="st7" d="M249.55,239.34c-0.05,0.03,1.86-1.21,2.44-1.77l-2.74,26.52c0.79,0.37,1.47,0.94,1.97,1.76
					c1.33,2.15,0.59,4.98-1.56,6.31l-4.76-7.73c0.67-0.41,1.4-0.63,2.11-0.7L249.55,239.34z"/>
			</g>
			<g>
				<path class="st7" d="M225.44,232.85l9.76,15.85c28.48-17.55,31.97-24.91,31.97-24.91c-4.75-5.4-21.99-5.57-38.21,2.24
					c0.01,0.06,0,0.1,0.03,0.15c-0.1-0.43-0.25-0.84-0.49-1.22c-0.09-0.14-0.16-0.26-0.27-0.33c-1.58,1.24-3.4,2.46-5.51,3.76
					c-2.11,1.3-4.03,2.35-5.83,3.23c0.01,0.13,0.08,0.24,0.17,0.39c0.24,0.38,0.53,0.7,0.87,0.98c-0.05-0.03-0.07-0.06-0.12-0.09
					c-14.27,10.97-21.87,26.45-19.19,33.12c0,0,8.12,0.21,36.63-17.35l-9.76-15.85L225.44,232.85z"/>
			</g>
			<g>
				<path class="st7" d="M184.67,133.12c0,0-8.66,1.17-16.84,6.22l54.84,89.02c15.53-9.57,15.22-17.2,15.22-17.2l-9.51-15.44
					l-4.44-0.56l-1.92-3.11c1.65-2.04,3.31-4.32,4.87-6.89l-10.46-16.97l2.97-1.83l-0.56-0.91l16.11-9.92l6.18,10.03l-5.48,3.38
					l6.71,10.89c0.56,0.91,1.8,1.2,2.68,0.66l72.26-44.52c0.91-0.56,1.2-1.8,0.64-2.71l-0.16-0.26l-0.05,0.03l-26.81-43.51
					c-0.65-0.73-1.67-0.89-2.48-0.39l-72.21,44.49c-0.91,0.56-1.2,1.8-0.64,2.71l6.71,10.89l5.46-3.36l6.18,10.03l-16.11,9.92
					l-0.5-0.81l-2.97,1.83l-15.63-25.37c-3.13,0.44-6.16,1.15-8.94,2L184.67,133.12z"/>
			</g>
			<g>
				<path class="st7" d="M74.81,238.06l6.18,10.03l-0.05,0.03l0.69,1.12l0.05-0.03l6.18,10.03l-0.05,0.03l0.69,1.12l0.05-0.03
					l6.18,10.03l-0.05,0.03l0.16,0.26c0.56,0.91,1.8,1.2,2.71,0.64l72.26-44.52c0.91-0.56,1.18-1.78,0.62-2.69l-6.71-10.89
					l-5.48,3.38l-6.18-10.03l16.11-9.92l0.56,0.91l2.97-1.83l10.46,16.97c3.02-0.24,5.82-0.68,8.35-1.25l1.92,3.11l-1.49,4.22
					l9.51,15.44c0,0,6.68,3.71,22.21-5.86l-54.84-89.02c-8.19,5.04-13.13,12.25-13.13,12.25l5.12,8.31
					c-2.01,2.1-4.02,4.46-5.81,7.08l15.63,25.37l-2.97,1.83l0.5,0.81l-16.11,9.92l-6.18-10.03l5.46-3.36l-6.71-10.89
					c-0.56-0.91-1.8-1.2-2.71-0.64l-72.21,44.49c-0.81,0.5-1.13,1.49-0.77,2.39l6.18,10.03l-0.05,0.03l0.69,1.12l0.05-0.03
					L74.81,238.06z"/>
			</g>
			<g>
				<path class="st7" d="M220.39,257.3l22.91,8.67c0.37-0.63,0.91-1.15,1.58-1.57l4.76,7.73c-2.15,1.33-5,0.73-6.34-1.44
					c-0.49-0.79-0.7-1.68-0.68-2.55l-24.91-9.45C218.47,258.42,220.42,257.28,220.39,257.3z"/>
			</g>
			<g class="st8">
				<path class="st9" d="M228.47,224.95c1.46,2.37,0.16,5.88-2.99,7.85c-0.02,0.01-0.02,0.01-0.05,0.03
					c-0.02,0.01-0.02,0.01-0.05,0.03c-3.17,1.92-6.91,1.48-8.36-0.86c-0.09-0.14-0.16-0.26-0.17-0.39c1.79-0.84,3.7-1.92,5.79-3.2
					l0.1-0.06c2.08-1.28,3.89-2.53,5.46-3.73C228.3,224.69,228.39,224.83,228.47,224.95z"/>
			</g>
			<g>
				<polygon class="st9" points="225.41,232.91 225.38,232.85 225.43,232.83 225.46,232.89 				"/>
			</g>
			<g>
				<path class="st9" d="M246.86,272.44c-0.34,0-0.68-0.04-1.01-0.11c-1.22-0.27-2.25-0.99-2.9-2.04c-0.47-0.76-0.71-1.64-0.69-2.55
					l-24.57-9.33c-14.18,7.33-19.06,7.43-19.29,7.43c0,0-0.01,0-0.01,0l-0.02,0l-0.01-0.02c-0.66-1.64-0.71-3.87-0.14-6.46
					c0.56-2.57,1.73-5.52,3.38-8.51c3.64-6.61,9.3-13.06,15.93-18.16c-0.03-0.02-0.05-0.05-0.07-0.08
					c-0.03-0.02-0.05-0.05-0.08-0.07c-0.02-0.03-0.05-0.05-0.07-0.06l-0.01-0.01c-0.01-0.02-0.02-0.04-0.05-0.04l-0.01,0
					c-0.06-0.04-0.11-0.11-0.14-0.16l-0.01-0.02c-0.01-0.02-0.03-0.04-0.05-0.07c-0.03-0.03-0.06-0.07-0.09-0.11l-0.15-0.24
					c-0.03-0.04-0.06-0.1-0.1-0.16c-5.78,2.75-9.87,3.33-12.32,3.33c-0.03,0-0.06,0-0.09,0c-2.65-0.02-3.92-0.7-3.94-0.71l-0.01,0
					l0-0.01l-9.51-15.43l0.01-0.02l1.49-4.21l-1.9-3.08c-2.91,0.63-5.64,1.04-8.33,1.24l-0.02,0l-0.01-0.02l-10.44-16.94l-2.97,1.83
					l-0.02-0.03l-0.54-0.88l-16,9.86l6.14,9.97l5.48-3.38l0.02,0.03l6.71,10.89c0.28,0.45,0.36,0.98,0.24,1.51
					c-0.12,0.52-0.44,0.97-0.87,1.23l-72.26,44.52c-0.92,0.57-2.19,0.27-2.76-0.65l-0.18-0.29l0.05-0.03l-6.14-9.97l-0.05,0.03
					l-0.02-0.03l-0.71-1.16l0.05-0.03l-6.14-9.97l-0.05,0.03l-0.73-1.18l0.05-0.03l-6.14-9.97l-0.05,0.03l-0.02-0.03l-0.71-1.16
					l0.05-0.03l-6.16-10c-0.37-0.93-0.05-1.93,0.78-2.44l72.21-44.49c0.93-0.57,2.19-0.27,2.76,0.65l6.73,10.92l-0.03,0.02
					l-5.43,3.34l6.14,9.97l16.05-9.89l-0.5-0.81l0.03-0.02l2.94-1.81l-15.63-25.36l0.01-0.02c1.7-2.45,3.65-4.82,5.79-7.06
					l-5.11-8.29l0-0.01c0.01-0.05,4.88-7.21,13.15-12.31c8.1-4.99,16.77-6.21,16.86-6.22l0.02,0l0.01,0.02l5.1,8.28
					c3.15-0.97,6.07-1.62,8.92-2l0.02,0l0.01,0.02l15.61,25.34l2.97-1.83l0.5,0.81l16.05-9.89l-6.14-9.97l-5.46,3.36l-0.02-0.03
					l-6.71-10.89c-0.28-0.45-0.36-0.98-0.23-1.51s0.44-0.97,0.89-1.24l72.21-44.49c0.83-0.51,1.87-0.35,2.53,0.39l26.8,43.49
					l0.05-0.03l0.18,0.29c0.28,0.45,0.36,0.98,0.23,1.51c-0.13,0.53-0.44,0.97-0.89,1.24l-72.26,44.52
					c-0.93,0.57-2.15,0.27-2.73-0.67l-6.73-10.92l0.03-0.02l5.45-3.36l-6.14-9.97l-16.05,9.89l0.56,0.91l-0.03,0.02l-2.94,1.81
					l10.45,16.96l-0.01,0.02c-1.5,2.46-3.13,4.77-4.85,6.88l1.9,3.08l4.44,0.56l0.01,0.01l9.52,15.45v0.01
					c0,0.01,0.04,1.45-1.13,3.82c-1.08,2.18-3.44,5.61-8.56,9.6l0.25,0.4c0.03,0.05,0.08,0.12,0.1,0.21l0.01,0.02
					c0.02,0.03,0.03,0.06,0.04,0.1c0.01,0.03,0.02,0.06,0.04,0.08c0.01,0.02,0.04,0.06,0.03,0.11c0,0.03,0.01,0.05,0.03,0.08
					c0.01,0.04,0.03,0.07,0.03,0.11c0,0.03,0.01,0.06,0.03,0.09c0,0,0,0,0,0c7.55-3.63,15.85-5.78,23.39-6.07
					c3.42-0.13,6.57,0.15,9.12,0.81c2.57,0.66,4.54,1.71,5.71,3.04l0.02,0.02l-0.01,0.02c-0.02,0.04-2.14,4.34-15.31,13.9
					l-2.71,26.1c0.83,0.39,1.49,0.99,1.97,1.76c0.65,1.05,0.83,2.29,0.53,3.49c-0.3,1.2-1.06,2.22-2.12,2.88
					C248.59,272.19,247.73,272.44,246.86,272.44z M217.68,258.33l0.01,0.01l24.63,9.35l0,0.02c-0.02,0.9,0.21,1.78,0.68,2.53
					c0.64,1.04,1.65,1.75,2.85,2.01c1.19,0.26,2.42,0.05,3.46-0.6c1.05-0.65,1.79-1.65,2.09-2.84c0.3-1.19,0.12-2.41-0.52-3.44
					c-0.47-0.77-1.13-1.35-1.96-1.74l-0.02-0.01l0-0.02l2.72-26.16l0.01-0.01c12.7-9.21,15.12-13.53,15.29-13.86
					c-1.16-1.31-3.11-2.34-5.66-3c-2.54-0.65-5.69-0.93-9.1-0.81c-7.54,0.28-15.84,2.43-23.38,6.06c0,0.01,0,0.02,0.01,0.03
					c0.02,0.03,0.02,0.04,0.01,0.08l-0.07-0.02c0-0.01,0-0.03,0-0.04l0-0.01c0-0.01-0.01-0.03-0.01-0.04c0-0.02-0.01-0.04-0.02-0.05
					c-0.01-0.04-0.03-0.07-0.03-0.11c0-0.03-0.01-0.06-0.03-0.09c-0.01-0.03-0.03-0.07-0.03-0.11l0-0.01l0-0.01
					c0.01-0.02,0-0.04-0.02-0.06c-0.02-0.03-0.03-0.06-0.04-0.1c-0.01-0.03-0.02-0.06-0.04-0.08l-0.02-0.03
					c-0.02-0.08-0.06-0.15-0.09-0.19l-0.28-0.46l0.02-0.02c5.12-3.99,7.48-7.41,8.56-9.59c1.12-2.25,1.13-3.66,1.13-3.78l-9.5-15.42
					l-4.44-0.56l-1.94-3.15l0.02-0.02c1.72-2.1,3.36-4.41,4.85-6.87l-10.46-16.98l0.03-0.02l2.94-1.81l-0.56-0.91l0.03-0.02
					l16.14-9.94l0.02,0.03l6.2,10.06l-0.03,0.02l-5.45,3.36l6.69,10.86c0.55,0.89,1.76,1.19,2.64,0.65l72.26-44.52
					c0.43-0.27,0.74-0.69,0.86-1.2c0.12-0.51,0.04-1.03-0.23-1.46l-0.14-0.23l-0.05,0.03l-0.02-0.03L290.89,89.5
					c-0.63-0.71-1.63-0.87-2.43-0.37l-72.21,44.49c-0.43,0.27-0.74,0.69-0.86,1.2c-0.12,0.51-0.04,1.03,0.23,1.46l6.69,10.86
					l5.46-3.36l0.02,0.03l6.2,10.06l-0.03,0.02l-16.14,9.94l-0.5-0.81l-2.97,1.83l-0.02-0.03l-15.62-25.35
					c-2.84,0.38-5.76,1.03-8.91,2l-0.03,0.01l-0.01-0.02l-5.11-8.29c-0.5,0.07-8.92,1.35-16.81,6.21l-0.02-0.03l0.02,0.03
					c-7.99,4.92-12.86,11.88-13.11,12.26l5.12,8.31l-0.02,0.02c-2.15,2.24-4.1,4.61-5.79,7.06l15.64,25.38l-0.03,0.02l-2.94,1.81
					l0.5,0.81l-0.03,0.02L151.05,205l-0.02-0.03l-6.2-10.06l0.03-0.02l5.43-3.34l-6.69-10.86c-0.55-0.89-1.77-1.18-2.66-0.63
					l-72.21,44.49c-0.8,0.49-1.11,1.46-0.76,2.35l6.19,10.05l-0.05,0.03l0.66,1.06l0.05-0.03l0.02,0.03l6.2,10.06l-0.05,0.03
					l0.66,1.06l0.05-0.03l0.02,0.03l6.2,10.06l-0.05,0.03l0.66,1.06l0.05-0.03l0.02,0.03l6.2,10.06l-0.05,0.03l0.14,0.23
					c0.55,0.89,1.77,1.18,2.66,0.63l72.26-44.52c0.42-0.26,0.72-0.69,0.84-1.19c0.12-0.51,0.04-1.03-0.23-1.46l-6.69-10.86
					l-5.48,3.38l-0.02-0.03l-6.2-10.06l0.03-0.02l16.09-9.91l0.02,0.03l0.54,0.88l2.97-1.83l0.02,0.03l10.44,16.95
					c2.69-0.21,5.41-0.61,8.32-1.24l0.02-0.01l1.94,3.15l-0.01,0.02l-1.49,4.21l9.48,15.39c0.11,0.06,1.38,0.68,3.9,0.7
					c0.03,0,0.05,0,0.08,0c2.44,0,6.54-0.59,12.32-3.34l0.03-0.01l0.02,0.03c0.04,0.07,0.09,0.14,0.12,0.19l0.15,0.24
					c0.02,0.04,0.05,0.07,0.08,0.1c0.02,0.03,0.05,0.05,0.06,0.08l0.01,0.02c0.03,0.04,0.07,0.11,0.11,0.14
					c0.04,0.01,0.06,0.04,0.08,0.06c0.03,0.02,0.05,0.05,0.08,0.07c0.02,0.03,0.05,0.05,0.07,0.06l0.01,0.01
					c0.03,0.04,0.09,0.09,0.13,0.12c0.04,0.01,0.05,0.02,0.07,0.05l0.05,0.07l-0.08-0.02c-0.03-0.01-0.05-0.02-0.07-0.04
					c-0.01-0.01-0.02-0.01-0.02-0.02c-6.63,5.1-12.29,11.55-15.92,18.15c-1.65,2.99-2.81,5.92-3.37,8.49
					c-0.56,2.57-0.51,4.78,0.13,6.4c0.37-0.01,5.32-0.22,19.26-7.43L217.68,258.33z"/>
			</g>
			<g>
				<path class="st9" d="M243.02,265.53l-0.03-0.01l-22.68-8.58l0.07-0.04c4.4-2.36,9.32-5.22,14.64-8.49
					c5.32-3.28,10.09-6.39,14.17-9.26l0.06-0.04l-0.01,0.08l-2.53,24.07l-0.03,0c-0.77,0.08-1.47,0.32-2.09,0.7
					c-0.67,0.41-1.2,0.94-1.57,1.55L243.02,265.53z M220.48,256.93l22.51,8.52c0.37-0.62,0.9-1.14,1.57-1.55
					c0.62-0.38,1.33-0.62,2.1-0.71l2.51-23.94c-4.07,2.86-8.82,5.96-14.11,9.22C229.77,251.73,224.86,254.57,220.48,256.93z"/>
			</g>
			<g class="st10">
				<path class="st11" d="M173.62,148.75l34.29,55.65c0,0-9.83,7.04-25.73,8.29l-28.17-45.72
					C161.9,155.54,173.62,148.75,173.62,148.75z"/>
			</g>
			<g class="st10">
				<path class="st11" d="M225.41,232.81l0.58,0.93l9.2,14.94c-28.48,17.55-36.63,17.35-36.63,17.35
					c-2.69-6.67,4.91-22.15,19.19-33.12C221.56,235.55,225.41,232.81,225.41,232.81z"/>
			</g>
			<g class="st10">
				<path class="st11" d="M249.64,272.13c-2.15,1.33-5,0.73-6.34-1.44c-1.34-2.18-0.64-4.95,1.56-6.31L249.64,272.13z"/>
			</g>
			<g>
				
					<rect x="74.41" y="236.85" transform="matrix(0.8514 -0.5245 0.5245 0.8514 -113.5237 74.3438)" class="st12" width="0.06" height="1.32"/>
			</g>
			<g>
				
					<rect x="81.28" y="248.01" transform="matrix(0.8514 -0.5245 0.5245 0.8514 -118.3531 79.6061)" class="st12" width="0.06" height="1.32"/>
			</g>
			<g>
				
					<rect x="88.15" y="259.16" transform="matrix(0.8514 -0.5245 0.5245 0.8514 -123.1824 84.8685)" class="st12" width="0.06" height="1.32"/>
			</g>
			<g>
				
					<rect x="170.65" y="192.05" transform="matrix(0.8514 -0.5245 0.5245 0.8514 -76.4116 118.3674)" class="st12" width="0.06" height="3.96"/>
			</g>
			<g>
				<g>
					<g class="st13">
						<path class="st14" d="M169.74,192.55c0,0,12.24-5,23.49-11.93l1.95,3.16c-11.25,6.93-23.49,11.93-23.49,11.93L169.74,192.55z"
							/>
					</g>
					<g class="st10">
						<path class="st14" d="M159.89,160.01l-5.19-8.43c0,0,4.94-7.2,13.13-12.25l5.88,9.55
							C173.71,148.89,165.9,153.57,159.89,160.01z"/>
					</g>
					<g class="st13">
						<path class="st14" d="M193.47,216.23c0,0,8.39-1.07,17.58-6.74l-3.19-5.17c0,0-7.74,5.07-17.36,7.09L193.47,216.23z"/>
					</g>
					<g class="st10">
						<path class="st14" d="M196.12,227.18l4.32,7.01c0,0,6.68,3.71,22.21-5.86l-6.11-9.91
							C216.57,218.45,212.56,221.54,196.12,227.18z"/>
					</g>
					<g class="st10">
						<path class="st15" d="M192.44,214.55l-1.49,4.22l5.21,8.45c0,0,15.01-5.22,20.44-8.73l-5.54-9c0,0-8.65,5.2-17.58,6.74
							L192.44,214.55z"/>
					</g>
					<g class="st13">
						<path class="st15" d="M217.03,232c1.47,2.39,5.24,2.78,8.45,0.8l-2.74-4.45c-2.11,1.3-4.06,2.37-5.88,3.26
							C216.86,231.74,216.95,231.88,217.03,232z"/>
					</g>
					<g class="st10">
						<path class="st15" d="M217.71,258.72l24.95,9.46c0,0,0.09-1.25,0.63-2.2l-22.91-8.67
							C220.42,257.28,218.47,258.42,217.71,258.72z"/>
					</g>
					<g class="st10">
						<path class="st11" d="M169.62,192.36l2.08,3.37l-2.97,1.83l-0.56-0.91l-16.11,9.92l6.18,10.03l5.48-3.38l6.71,10.89
							c0.56,0.91,0.27,2.15-0.62,2.69l-72.26,44.52c-0.91,0.56-2.15,0.27-2.71-0.64l-0.16-0.26l0.05-0.03l-26.81-43.51
							c-0.36-0.9-0.04-1.89,0.77-2.39L140.9,180c0.91-0.56,2.15-0.27,2.71,0.64l6.71,10.89l-5.46,3.36l6.18,10.03l16.11-9.92
							l-0.5-0.81L169.62,192.36z"/>
					</g>
					<g class="st8">
						<path class="st9" d="M173.62,148.75l34.29,55.65c0,0,10.71-5.61,18.98-19.25l-28.17-45.72
							C184.95,141.34,173.62,148.75,173.62,148.75z"/>
					</g>
					<g class="st8">
						<path class="st9" d="M228.94,226.04c16.22-7.81,33.46-7.64,38.21-2.24c0,0-3.49,7.37-31.97,24.91l-9.2-14.94l-0.58-0.93
							C225.41,232.81,229.57,230.61,228.94,226.04z"/>
					</g>
					<g class="st8">
						<path class="st9" d="M244.88,264.4c2.2-1.36,5-0.73,6.34,1.44c1.34,2.18,0.59,4.98-1.56,6.31L244.88,264.4z"/>
					</g>
					<g>
						
							<rect x="297.46" y="99.43" transform="matrix(0.8514 -0.5245 0.5245 0.8514 -8.2879 170.9214)" class="st12" width="0.06" height="1.32"/>
					</g>
					<g>
						
							<rect x="304.33" y="110.58" transform="matrix(0.8514 -0.5245 0.5245 0.8514 -13.1173 176.1838)" class="st12" width="0.06" height="1.32"/>
					</g>
					<g>
						
							<rect x="311.2" y="121.73" transform="matrix(0.8514 -0.5245 0.5245 0.8514 -17.9467 181.4461)" class="st12" width="0.06" height="1.32"/>
					</g>
					<g>
						
							<rect x="215.34" y="164.52" transform="matrix(0.8514 -0.5245 0.5245 0.8514 -55.3283 137.7161)" class="st12" width="0.06" height="3.96"/>
					</g>
					<g class="st8">
						<path class="st16" d="M216.4,168.12c0,0-9.97,8.69-21.22,15.62l-1.95-3.16c11.25-6.93,21.22-15.62,21.22-15.62L216.4,168.12z"
							/>
					</g>
					<g class="st8">
						<path class="st17" d="M173.71,148.89l-5.88-9.55c8.19-5.04,16.84-6.22,16.84-6.22l5.19,8.43
							C181.38,144.03,173.71,148.89,173.71,148.89z"/>
					</g>
					<g class="st18">
						<path class="st16" d="M222.01,192.01c-6.13,7.68-14.14,12.31-14.14,12.31l3.19,5.17c9.19-5.66,13.92-12.67,13.92-12.67
							L222.01,192.01z"/>
					</g>
					<g class="st8">
						<path class="st17" d="M216.57,218.45l6.11,9.91c15.53-9.57,15.22-17.2,15.22-17.2l-4.32-7.01
							C221.11,216.28,216.57,218.45,216.57,218.45z"/>
					</g>
					<g class="st8">
						<path class="st19" d="M224.97,196.82c-5.39,7.28-13.92,12.67-13.92,12.67l5.54,9c7.82-4.52,16.99-14.33,16.99-14.33
							l-5.21-8.45l-4.44-0.56L224.97,196.82z"/>
					</g>
					<g class="st18">
						<path class="st16" d="M228.2,224.62c-1.58,1.24-3.43,2.48-5.56,3.79l2.74,4.45c3.18-1.96,4.54-5.54,3.08-7.91
							C228.39,224.83,228.3,224.69,228.2,224.62z"/>
					</g>
					<g class="st18">
						<path class="st19" d="M249.55,239.34l-2.56,24.36c1.09-0.05,2.25,0.43,2.25,0.43l2.77-26.54
							C251.41,238.12,249.5,239.37,249.55,239.34z"/>
					</g>
					<g class="st8">
						<path class="st9" d="M214.35,164.8l2.08,3.37l2.97-1.83l-0.56-0.91l16.11-9.92l6.18,10.03l-5.48,3.38l6.71,10.89
							c0.56,0.91,1.8,1.2,2.68,0.66l72.26-44.52c0.91-0.56,1.2-1.8,0.64-2.71l-0.16-0.26l-0.05,0.03l-26.81-43.51
							c-0.65-0.73-1.67-0.89-2.48-0.39l-72.21,44.49c-0.91,0.56-1.2,1.8-0.64,2.71l6.71,10.89l5.46-3.36l6.18,10.03l-16.11,9.92
							l-0.5-0.81L214.35,164.8z"/>
					</g>
				</g>
				<g>
					
						<rect x="146.5" y="189.09" transform="matrix(0.8514 -0.5245 0.5245 0.8514 -79.0962 110.7859)" class="st20" width="18.92" height="11.78"/>
				</g>
				<g>
					
						<rect x="153.71" y="200.79" transform="matrix(0.8514 -0.5245 0.5245 0.8514 -84.164 116.308)" class="st20" width="18.92" height="11.78"/>
				</g>
				<g>
					
						<rect x="213.38" y="147.89" transform="matrix(0.8514 -0.5245 0.5245 0.8514 -47.5447 139.7416)" class="st20" width="18.92" height="11.78"/>
				</g>
				<g>
					
						<rect x="220.59" y="159.59" transform="matrix(0.8514 -0.5245 0.5245 0.8514 -52.6125 145.2637)" class="st20" width="18.92" height="11.78"/>
				</g>
			</g>
		</g>
		<g>
			<g>
				
					<rect x="101.71" y="202.28" transform="matrix(0.8514 -0.5245 0.5245 0.8514 -101.8602 94.9813)" class="st21" width="29.95" height="49.93"/>
				<path class="st20" d="M116.81,257.31l-26.92-43.69l26.68-16.44l26.92,43.69L116.81,257.31z M91.8,214.07l25.46,41.33
					l24.32-14.98l-25.46-41.33L91.8,214.07z"/>
			</g>
			<g>
				
					<rect x="127.69" y="188.26" transform="matrix(0.8514 -0.5245 0.5245 0.8514 -91.1233 104.8348)" class="st21" width="23.51" height="49.93"/>
				<path class="st20" d="M142.31,241.6l-26.92-43.69l21.2-13.06l26.92,43.69L142.31,241.6z M117.3,198.37l25.46,41.33l18.84-11.61
					l-25.46-41.33L117.3,198.37z"/>
			</g>
			<g>
				
					<rect x="78.48" y="217.35" transform="matrix(0.8514 -0.5245 0.5245 0.8514 -113.3995 84.3914)" class="st21" width="27.51" height="49.93"/>
				<path class="st20" d="M93.39,271.74l-26.92-43.69l24.6-15.16l26.92,43.69L93.39,271.74z M68.38,228.5l25.46,41.33l22.24-13.7
					L90.62,214.8L68.38,228.5z"/>
			</g>
		</g>
		<g>
			<g>
				
					<rect x="254.37" y="108.23" transform="matrix(0.8514 -0.5245 0.5245 0.8514 -29.8373 161.0786)" class="st21" width="29.95" height="49.93"/>
				<path class="st20" d="M269.46,163.26l-26.92-43.69l26.68-16.44l26.92,43.69L269.46,163.26z M244.45,120.02l25.46,41.33
					l24.32-14.98l-25.46-41.33L244.45,120.02z"/>
			</g>
			<g>
				
					<rect x="234.83" y="122.25" transform="matrix(0.8514 -0.5245 0.5245 0.8514 -40.5742 151.2251)" class="st21" width="23.51" height="49.93"/>
				<path class="st20" d="M249.45,175.59l-26.92-43.69l21.2-13.06l26.92,43.69L249.45,175.59z M224.44,132.35l25.46,41.33
					l18.84-11.61l-25.46-41.33L224.44,132.35z"/>
			</g>
			<g>
				
					<rect x="280.05" y="93.16" transform="matrix(0.8514 -0.5245 0.5245 0.8514 -18.298 171.6686)" class="st21" width="27.51" height="49.93"/>
				<path class="st20" d="M294.96,147.55l-26.92-43.69l24.6-15.16l26.92,43.69L294.96,147.55z M269.95,104.31l25.46,41.33
					l22.24-13.7l-25.46-41.33L269.95,104.31z"/>
			</g>
		</g>
	</g>
	<g>
		<g>
			<polyline class="st2" points="258.94,201.49 259.8,205.98 258.34,209.85 262.88,210.31 266.12,213.01 267.94,209.06 
				271.69,206.63 268.26,203.68 267.34,199.23 264.02,201.39 258.94,201.49 			"/>
		</g>
		<g>
			<polyline class="st3" points="258.94,201.49 260.84,205.83 258.34,209.85 263.06,209.39 266.12,213.01 267.13,208.38 
				271.52,206.59 267.43,204.2 267.09,199.47 263.55,202.62 258.94,201.49 			"/>
		</g>
	</g>
	<g>
		<path class="st3" d="M198.01,376.93c-24.48,0-48.23-4.8-70.59-14.25c-21.59-9.13-40.99-22.21-57.64-38.86
			s-29.73-36.05-38.86-57.64c-9.46-22.36-14.25-46.11-14.25-70.59s4.79-48.23,14.25-70.59c9.13-21.59,22.21-40.99,38.86-57.64
			c16.65-16.65,36.05-29.73,57.64-38.86c22.36-9.46,46.11-14.25,70.59-14.25c24.48,0,48.23,4.79,70.59,14.25
			c21.59,9.13,40.99,22.21,57.64,38.86c16.65,16.65,29.73,36.05,38.86,57.64c9.46,22.36,14.25,46.11,14.25,70.59
			s-4.79,48.23-14.25,70.59c-9.13,21.59-22.21,40.99-38.86,57.64s-36.05,29.73-57.64,38.86
			C246.24,372.14,222.49,376.93,198.01,376.93z M198.01,17.02c-98.46,0-178.57,80.1-178.57,178.57s80.1,178.57,178.57,178.57
			s178.57-80.1,178.57-178.57S296.47,17.02,198.01,17.02z"/>
	</g>
	<g>
		<g>
			<path class="st0" d="M478.16,175.19c-0.63,1-1.28,1.75-1.97,2.25c-0.69,0.5-1.57,0.75-2.66,0.75c-0.96,0-1.99-0.3-3.1-0.91
				c-1.11-0.6-2.36-1.28-3.75-2.03c-1.4-0.75-2.99-1.43-4.78-2.03c-1.79-0.6-3.84-0.91-6.13-0.91c-3.96,0-6.91,0.84-8.85,2.53
				c-1.94,1.69-2.91,3.97-2.91,6.85c0,1.84,0.58,3.36,1.75,4.57c1.17,1.21,2.7,2.25,4.6,3.13c1.9,0.88,4.07,1.68,6.5,2.41
				c2.44,0.73,4.93,1.54,7.47,2.44c2.54,0.9,5.03,1.95,7.47,3.16c2.44,1.21,4.61,2.75,6.5,4.63c1.9,1.88,3.43,4.16,4.6,6.85
				c1.17,2.69,1.75,5.93,1.75,9.72c0,4.21-0.73,8.15-2.19,11.82c-1.46,3.67-3.58,6.87-6.35,9.6c-2.77,2.73-6.19,4.88-10.26,6.44
				c-4.06,1.56-8.68,2.35-13.85,2.35c-2.84,0-5.72-0.29-8.66-0.88c-2.94-0.58-5.79-1.41-8.54-2.47c-2.75-1.06-5.34-2.32-7.76-3.78
				c-2.42-1.46-4.52-3.08-6.32-4.88l6.25-9.88c0.46-0.75,1.1-1.36,1.94-1.81c0.83-0.46,1.73-0.69,2.69-0.69
				c1.25,0,2.51,0.4,3.78,1.19c1.27,0.79,2.71,1.67,4.32,2.63c1.6,0.96,3.45,1.84,5.53,2.63c2.08,0.79,4.54,1.19,7.38,1.19
				c3.84,0,6.82-0.84,8.94-2.53c2.13-1.69,3.19-4.37,3.19-8.04c0-2.13-0.58-3.86-1.75-5.19c-1.17-1.33-2.7-2.44-4.6-3.32
				c-1.9-0.87-4.06-1.65-6.47-2.31c-2.42-0.67-4.9-1.41-7.44-2.22c-2.54-0.81-5.02-1.81-7.44-3c-2.42-1.19-4.58-2.75-6.47-4.69
				c-1.9-1.94-3.43-4.36-4.6-7.25c-1.17-2.9-1.75-6.47-1.75-10.73c0-3.42,0.69-6.75,2.06-10.01c1.38-3.25,3.4-6.15,6.07-8.69
				c2.67-2.54,5.94-4.58,9.82-6.1c3.88-1.52,8.32-2.28,13.32-2.28c2.79,0,5.51,0.22,8.16,0.66c2.65,0.44,5.16,1.09,7.54,1.94
				c2.38,0.85,4.6,1.88,6.66,3.06c2.06,1.19,3.91,2.53,5.54,4.03L478.16,175.19z"/>
		</g>
		<g>
			<path class="st0" d="M495.17,268.38v-85.43h12.01c1.21,0,2.22,0.27,3.03,0.81c0.81,0.54,1.39,1.36,1.72,2.44l1.44,4.75
				c1.25-1.38,2.6-2.63,4.03-3.75c1.44-1.13,2.98-2.1,4.63-2.91c1.65-0.81,3.42-1.45,5.32-1.91c1.9-0.46,3.97-0.69,6.22-0.69
				c3.38,0,6.5,0.75,9.38,2.25c2.88,1.5,5.36,3.67,7.44,6.5c2.08,2.84,3.72,6.31,4.91,10.41s1.78,8.77,1.78,13.98
				c0,4.88-0.68,9.38-2.03,13.51c-1.36,4.13-3.25,7.71-5.69,10.76c-2.44,3.04-5.36,5.42-8.76,7.13c-3.4,1.71-7.16,2.56-11.29,2.56
				c-3.38,0-6.21-0.48-8.51-1.44c-2.29-0.96-4.38-2.25-6.25-3.88v24.89H495.17z M526.82,196.52c-1.42,0-2.7,0.14-3.85,0.41
				c-1.15,0.27-2.21,0.66-3.19,1.16c-0.98,0.5-1.89,1.14-2.72,1.91c-0.83,0.77-1.67,1.66-2.5,2.66v27.52
				c1.46,1.63,3.04,2.76,4.75,3.41c1.71,0.65,3.5,0.97,5.38,0.97c1.79,0,3.44-0.35,4.94-1.06c1.5-0.71,2.8-1.85,3.91-3.41
				c1.1-1.56,1.97-3.6,2.6-6.1c0.63-2.5,0.94-5.55,0.94-9.13c0-3.42-0.25-6.3-0.75-8.63c-0.5-2.34-1.2-4.22-2.1-5.66
				c-0.9-1.44-1.97-2.47-3.22-3.1C529.76,196.83,528.36,196.52,526.82,196.52z"/>
		</g>
		<g>
			<path class="st0" d="M612.25,247.8c-1.84,0-3.22-0.25-4.16-0.75c-0.94-0.5-1.72-1.54-2.35-3.13l-1.38-3.56
				c-1.63,1.38-3.19,2.59-4.69,3.63c-1.5,1.04-3.06,1.93-4.66,2.66c-1.61,0.73-3.31,1.27-5.13,1.63c-1.81,0.35-3.83,0.53-6.04,0.53
				c-2.96,0-5.65-0.39-8.07-1.16c-2.42-0.77-4.47-1.91-6.16-3.42c-1.69-1.51-2.99-3.38-3.91-5.62c-0.92-2.24-1.38-4.82-1.38-7.75
				c0-2.3,0.58-4.66,1.75-7.09c1.17-2.43,3.19-4.63,6.07-6.62c2.88-1.99,6.75-3.65,11.63-4.99c4.88-1.34,11.03-2.01,18.45-2.01
				v-2.78c0-3.83-0.78-6.6-2.35-8.3c-1.56-1.7-3.78-2.56-6.66-2.56c-2.29,0-4.17,0.25-5.63,0.75c-1.46,0.5-2.76,1.06-3.91,1.69
				c-1.15,0.63-2.26,1.19-3.35,1.69c-1.09,0.5-2.38,0.75-3.88,0.75c-1.33,0-2.47-0.32-3.41-0.97c-0.94-0.65-1.68-1.45-2.22-2.41
				l-3.5-6.07c3.92-3.46,8.27-6.04,13.04-7.72c4.77-1.69,9.89-2.53,15.35-2.53c3.92,0,7.45,0.64,10.6,1.91
				c3.15,1.27,5.82,3.04,8.01,5.32c2.19,2.27,3.87,4.97,5.03,8.1c1.17,3.13,1.75,6.55,1.75,10.26v40.53H612.25z M589.98,235.98
				c2.5,0,4.69-0.44,6.57-1.31c1.88-0.88,3.77-2.29,5.69-4.25v-8.88c-3.88,0-7.07,0.25-9.57,0.76c-2.5,0.5-4.48,1.14-5.94,1.89
				c-1.46,0.76-2.47,1.62-3.03,2.59c-0.56,0.97-0.84,2.02-0.84,3.15c0,2.23,0.6,3.8,1.81,4.7
				C585.88,235.53,587.65,235.98,589.98,235.98z"/>
		</g>
		<g>
			<path class="st0" d="M681.67,198.33c-0.58,0.71-1.15,1.27-1.69,1.69c-0.54,0.42-1.31,0.63-2.31,0.63c-0.96,0-1.82-0.23-2.59-0.69
				c-0.77-0.46-1.64-0.97-2.6-1.53c-0.96-0.56-2.09-1.07-3.38-1.53c-1.29-0.46-2.9-0.69-4.82-0.69c-2.38,0-4.43,0.44-6.16,1.31
				c-1.73,0.88-3.16,2.13-4.28,3.75c-1.13,1.63-1.96,3.62-2.5,5.97c-0.54,2.36-0.81,5.01-0.81,7.97c0,6.21,1.2,10.99,3.6,14.32
				c2.4,3.34,5.7,5,9.91,5c2.25,0,4.03-0.28,5.35-0.84c1.31-0.56,2.43-1.19,3.35-1.88c0.92-0.69,1.76-1.32,2.53-1.91
				c0.77-0.58,1.74-0.88,2.91-0.88c1.54,0,2.71,0.56,3.5,1.69l5.63,6.94c-2,2.29-4.11,4.16-6.32,5.6c-2.21,1.44-4.47,2.56-6.79,3.38
				c-2.31,0.81-4.64,1.38-6.97,1.69c-2.34,0.31-4.61,0.47-6.82,0.47c-3.96,0-7.75-0.75-11.35-2.25c-3.61-1.5-6.78-3.68-9.51-6.54
				c-2.73-2.86-4.9-6.37-6.5-10.54c-1.61-4.17-2.41-8.92-2.41-14.26c0-4.67,0.7-9.04,2.1-13.1c1.4-4.07,3.46-7.59,6.19-10.57
				c2.73-2.98,6.11-5.33,10.13-7.04c4.02-1.71,8.68-2.56,13.98-2.56c5.09,0,9.55,0.81,13.38,2.44c3.83,1.63,7.3,4,10.38,7.13
				L681.67,198.33z"/>
		</g>
		<g>
			<path class="st0" d="M723.45,181.95c4.29,0,8.22,0.67,11.79,2s6.63,3.27,9.19,5.82c2.56,2.54,4.57,5.66,6,9.35
				c1.44,3.69,2.16,7.87,2.16,12.54c0,1.46-0.06,2.65-0.19,3.56c-0.13,0.92-0.36,1.65-0.69,2.19c-0.33,0.54-0.78,0.92-1.34,1.13
				c-0.56,0.21-1.28,0.31-2.16,0.31h-37.4c0.63,5.42,2.27,9.35,4.94,11.79s6.11,3.66,10.32,3.66c2.25,0,4.19-0.27,5.82-0.81
				c1.63-0.54,3.07-1.15,4.35-1.81c1.27-0.67,2.44-1.27,3.5-1.81c1.06-0.54,2.18-0.81,3.35-0.81c1.54,0,2.71,0.56,3.5,1.69
				l5.63,6.94c-2,2.29-4.16,4.16-6.47,5.6c-2.31,1.44-4.69,2.56-7.13,3.38c-2.44,0.81-4.88,1.38-7.32,1.69
				c-2.44,0.31-4.76,0.47-6.97,0.47c-4.55,0-8.81-0.74-12.79-2.22c-3.98-1.48-7.46-3.68-10.44-6.6c-2.98-2.92-5.34-6.55-7.07-10.88
				c-1.73-4.34-2.6-9.38-2.6-15.14c0-4.34,0.74-8.44,2.22-12.32c1.48-3.88,3.61-7.28,6.38-10.19c2.77-2.92,6.13-5.23,10.07-6.94
				C714.03,182.8,718.48,181.95,723.45,181.95z M723.82,195.33c-3.71,0-6.61,1.05-8.69,3.16c-2.09,2.11-3.46,5.14-4.13,9.1h24.2
				c0-1.54-0.2-3.04-0.59-4.5c-0.4-1.46-1.04-2.76-1.94-3.91c-0.9-1.15-2.07-2.07-3.53-2.78
				C727.68,195.68,725.91,195.33,723.82,195.33z"/>
		</g>
		<g>
			<path class="st0" d="M814.51,175.19c-0.63,1-1.28,1.75-1.97,2.25c-0.69,0.5-1.57,0.75-2.66,0.75c-0.96,0-1.99-0.3-3.1-0.91
				c-1.11-0.6-2.36-1.28-3.75-2.03c-1.4-0.75-2.99-1.43-4.78-2.03c-1.79-0.6-3.84-0.91-6.13-0.91c-3.96,0-6.91,0.84-8.85,2.53
				c-1.94,1.69-2.91,3.97-2.91,6.85c0,1.84,0.58,3.36,1.75,4.57c1.17,1.21,2.7,2.25,4.6,3.13c1.9,0.88,4.07,1.68,6.5,2.41
				c2.44,0.73,4.93,1.54,7.47,2.44c2.54,0.9,5.03,1.95,7.47,3.16c2.44,1.21,4.61,2.75,6.5,4.63c1.9,1.88,3.43,4.16,4.6,6.85
				c1.17,2.69,1.75,5.93,1.75,9.72c0,4.21-0.73,8.15-2.19,11.82c-1.46,3.67-3.58,6.87-6.35,9.6c-2.77,2.73-6.19,4.88-10.26,6.44
				c-4.07,1.56-8.68,2.35-13.85,2.35c-2.84,0-5.72-0.29-8.66-0.88c-2.94-0.58-5.78-1.41-8.54-2.47c-2.75-1.06-5.34-2.32-7.76-3.78
				c-2.42-1.46-4.52-3.08-6.32-4.88l6.25-9.88c0.46-0.75,1.1-1.36,1.94-1.81c0.83-0.46,1.73-0.69,2.69-0.69
				c1.25,0,2.51,0.4,3.78,1.19c1.27,0.79,2.71,1.67,4.32,2.63c1.6,0.96,3.45,1.84,5.54,2.63c2.08,0.79,4.54,1.19,7.38,1.19
				c3.83,0,6.82-0.84,8.94-2.53c2.13-1.69,3.19-4.37,3.19-8.04c0-2.13-0.58-3.86-1.75-5.19c-1.17-1.33-2.7-2.44-4.6-3.32
				c-1.9-0.87-4.06-1.65-6.47-2.31s-4.9-1.41-7.44-2.22c-2.54-0.81-5.02-1.81-7.44-3c-2.42-1.19-4.58-2.75-6.47-4.69
				c-1.9-1.94-3.43-4.36-4.6-7.25c-1.17-2.9-1.75-6.47-1.75-10.73c0-3.42,0.69-6.75,2.06-10.01c1.38-3.25,3.4-6.15,6.07-8.69
				c2.67-2.54,5.94-4.58,9.82-6.1c3.88-1.52,8.32-2.28,13.32-2.28c2.79,0,5.51,0.22,8.16,0.66c2.65,0.44,5.16,1.09,7.54,1.94
				c2.38,0.85,4.6,1.88,6.66,3.06c2.06,1.19,3.91,2.53,5.53,4.03L814.51,175.19z"/>
		</g>
		<g>
			<path class="st0" d="M876.3,247.8c-1.83,0-3.22-0.25-4.16-0.75c-0.94-0.5-1.72-1.54-2.35-3.13l-1.38-3.56
				c-1.63,1.38-3.19,2.59-4.69,3.63c-1.5,1.04-3.06,1.93-4.66,2.66c-1.6,0.73-3.31,1.27-5.13,1.63c-1.81,0.35-3.83,0.53-6.03,0.53
				c-2.96,0-5.65-0.39-8.07-1.16c-2.42-0.77-4.47-1.91-6.16-3.42c-1.69-1.51-2.99-3.38-3.91-5.62c-0.92-2.24-1.38-4.82-1.38-7.75
				c0-2.3,0.58-4.66,1.75-7.09c1.17-2.43,3.19-4.63,6.07-6.62c2.88-1.99,6.75-3.65,11.63-4.99c4.88-1.34,11.03-2.01,18.45-2.01
				v-2.78c0-3.83-0.78-6.6-2.35-8.3c-1.56-1.7-3.78-2.56-6.66-2.56c-2.29,0-4.17,0.25-5.63,0.75c-1.46,0.5-2.76,1.06-3.91,1.69
				c-1.15,0.63-2.26,1.19-3.35,1.69c-1.08,0.5-2.38,0.75-3.88,0.75c-1.33,0-2.47-0.32-3.41-0.97c-0.94-0.65-1.68-1.45-2.22-2.41
				l-3.5-6.07c3.92-3.46,8.26-6.04,13.04-7.72c4.77-1.69,9.89-2.53,15.35-2.53c3.92,0,7.45,0.64,10.6,1.91
				c3.15,1.27,5.82,3.04,8.01,5.32c2.19,2.27,3.87,4.97,5.03,8.1c1.17,3.13,1.75,6.55,1.75,10.26v40.53H876.3z M854.03,235.98
				c2.5,0,4.69-0.44,6.57-1.31c1.88-0.88,3.77-2.29,5.69-4.25v-8.88c-3.88,0-7.07,0.25-9.57,0.76c-2.5,0.5-4.48,1.14-5.94,1.89
				c-1.46,0.76-2.47,1.62-3.03,2.59c-0.56,0.97-0.84,2.02-0.84,3.15c0,2.23,0.6,3.8,1.81,4.7
				C849.93,235.53,851.7,235.98,854.03,235.98z"/>
		</g>
		<g>
			<path class="st0" d="M921.7,248.8c-3.09,0-5.81-0.45-8.16-1.34c-2.36-0.9-4.34-2.17-5.94-3.82c-1.61-1.65-2.83-3.64-3.66-5.97
				s-1.25-4.94-1.25-7.82v-33.52h-5.5c-1,0-1.86-0.32-2.56-0.97c-0.71-0.65-1.06-1.59-1.06-2.84v-7.57l10.32-2l3.82-15.82
				c0.5-2,1.92-3,4.25-3h10.13v18.95h15.76v13.26h-15.76v32.21c0,1.5,0.36,2.74,1.09,3.72c0.73,0.98,1.78,1.47,3.16,1.47
				c0.71,0,1.3-0.07,1.78-0.22c0.48-0.15,0.9-0.31,1.25-0.5c0.35-0.19,0.69-0.35,1-0.5c0.31-0.15,0.68-0.22,1.09-0.22
				c0.58,0,1.05,0.13,1.41,0.41c0.35,0.27,0.72,0.7,1.09,1.28l5.88,9.19c-2.5,1.88-5.32,3.28-8.44,4.22
				C928.27,248.33,925.04,248.8,921.7,248.8z"/>
		</g>
	</g>
</g>
</svg>